<?xml version="1.0" encoding="utf-8" ?>
<svg baseProfile="tiny" height="200px" version="1.2" width="200px" xmlns="http://www.w3.org/2000/svg" xmlns:ev="http://www.w3.org/2001/xml-events" xmlns:xlink="http://www.w3.org/1999/xlink"><defs /><rect fill="#FFFFFF" height="100" rx="10" ry="10" stroke="#2C3E50" stroke-width="4" width="120" x="40" y="60" /><rect fill="#AEDFF7" height="20" rx="5" ry="5" stroke="#2C3E50" stroke-width="4" width="120" x="40" y="40" /><path d="M60,60 A40,40 0 0,1 140,60" fill="#FDCB6E" stroke="#2C3E50" stroke-width="4" /><line stroke="#2C3E50" stroke-width="3" x1="122.5" x2="115.0" y1="98.9711" y2="85.9808" /><line stroke="#2C3E50" stroke-width="3" x1="138.9711" x2="125.9808" y1="82.5" y2="75.0" /><line stroke="#2C3E50" stroke-width="3" x1="145.0" x2="130.0" y1="60.0" y2="60.0" /><line stroke="#2C3E50" stroke-width="3" x1="138.9711" x2="125.9808" y1="37.5" y2="45.0" /><line stroke="#2C3E50" stroke-width="3" x1="122.5" x2="115.0" y1="21.0289" y2="34.0192" /><rect fill="#FDCB6E" height="20" rx="4" ry="4" width="20" x="50" y="75" /><rect fill="#FDCB6E" height="20" rx="4" ry="4" width="20" x="85" y="75" /><rect fill="#FDCB6E" height="20" rx="4" ry="4" width="20" x="120" y="75" /><rect fill="#FDCB6E" height="20" rx="4" ry="4" width="20" x="50" y="110" /><rect fill="#FDCB6E" height="20" rx="4" ry="4" width="20" x="85" y="110" /><rect fill="#FDCB6E" height="20" rx="4" ry="4" width="20" x="120" y="110" /></svg>